<svg xmlns="http://www.w3.org/2000/svg" xmlns:xlink="http://www.w3.org/1999/xlink" contentStyleType="text/css" height="771px" preserveAspectRatio="none" style="width:500px;height:771px;background:#FFFFFF;" version="1.1" viewBox="0 0 500 771" width="500px" zoomAndPan="magnify"><defs/><g><!--cluster Frontend--><g id="cluster_Frontend"><rect fill="none" height="221" rx="2.5" ry="2.5" style="stroke:#181818;stroke-width:1.0;" width="146" x="38" y="144.5"/><text fill="#000000" font-family="sans-serif" font-size="14" font-weight="bold" lengthAdjust="spacing" textLength="72.2285" x="74.8857" y="159.4951">Frontend</text></g><!--cluster Backend--><g id="cluster_Backend"><rect fill="none" height="202" rx="2.5" ry="2.5" style="stroke:#181818;stroke-width:1.0;" width="124" x="208" y="278.5"/><text fill="#000000" font-family="sans-serif" font-size="14" font-weight="bold" lengthAdjust="spacing" textLength="67.2109" x="236.3945" y="293.4951">Backend</text></g><!--cluster MongoDB--><g id="cluster_MongoDB"><path d="M6,547.5 C6,537.5 155.5,537.5 155.5,537.5 C155.5,537.5 305,537.5 305,547.5 L305,744.5 C305,754.5 155.5,754.5 155.5,754.5 C155.5,754.5 6,754.5 6,744.5 L6,547.5 " fill="none" style="stroke:#181818;stroke-width:1.0;"/><path d="M6,547.5 C6,557.5 155.5,557.5 155.5,557.5 C155.5,557.5 305,557.5 305,547.5 " fill="none" style="stroke:#181818;stroke-width:1.0;"/><text fill="#000000" font-family="sans-serif" font-size="14" font-weight="bold" lengthAdjust="spacing" textLength="75.4482" x="117.7759" y="572.4951">MongoDB</text></g><!--cluster AI Service--><g id="cluster_AI Service"><path d="M345.0921,569.2241 C347.8338,562.3115 353.372,562.1415 357.4002,567.9826 C360.1086,562.3665 363.7004,561.6537 367.9262,566.4484 C371.1005,560.4763 375.463,560.389 379.3668,565.7093 C383.1052,559.6869 386.8241,559.034 391.0857,565.2065 C392.8768,558.4329 397.8993,557.7413 402.3121,562.6973 C407.5335,557.0838 411.441,558.5097 415.2512,564.2986 C418.9046,558.7446 424.1236,559.5592 426.2675,565.7184 C430.1705,562.0489 434.7229,563.2464 436.6619,568.1106 C441.2911,563.2546 445.6961,564.0155 449.1652,569.5119 C452.2411,564.8436 456.6034,563.1027 460.2556,568.9012 C465.7099,571.3942 466.9481,576.8095 461.7467,580.6544 C467.525,583.6171 468.412,589.6407 462.8547,593.5755 C468.3354,597.2404 467.2426,600.5377 462.9327,604.2741 C468.3376,608.6308 468.45,612.9697 461.9386,616.345 C467.3525,619.5292 468.2298,624.448 462.2387,627.9277 C468.2615,633.1744 466.636,637.8793 460.4065,641.4681 C457.3194,647.1183 451.6991,647.6031 447.9179,642.2565 C443.9189,647.0255 441.0172,645.6354 438.0426,641.162 C435.2673,646.9672 429.472,648.1765 424.9925,643.2306 C421.9611,647.687 417.9007,648.935 414.6356,643.4747 C410.987,649.2228 407.2958,650.3736 402.8177,644.3044 C399.9877,649.1947 394.5995,649.7827 391.8568,644.2129 C387.9183,649.5328 383.9801,648.2951 380.8403,643.3553 C376.6424,649.3915 370.9481,648.7478 368.2984,641.8537 C364.9126,645.8531 360.5919,645.8146 358.0457,640.8892 C353.8902,646.9285 349.0815,646.1322 345.3697,640.4109 C339.4343,636.7352 339.8083,632.6059 345.3166,628.8774 C338.811,626.1397 338.012,621.4226 343.39,616.7907 C337.83,613.3744 335.882,609.8 341.5689,604.691 C335.8221,601.1769 337.1135,595.5407 342.4238,592.823 C337.2783,589.0465 338.8538,584.3733 343.6764,581.7216 C338.0548,577.354 339.0633,572.272 345.0921,569.2241 " fill="none" style="stroke:#181818;stroke-width:1.0;"/><text fill="#000000" font-family="sans-serif" font-size="14" font-weight="bold" lengthAdjust="spacing" textLength="79.1191" x="362.4404" y="586.4951">AI Service</text></g><!--entity React/Next.js--><g id="elem_React/Next.js"><rect fill="#F1F1F1" height="36.2969" rx="2.5" ry="2.5" style="stroke:#181818;stroke-width:0.5;" width="113.3174" x="54.5" y="179.5"/><text fill="#000000" font-family="sans-serif" font-size="14" lengthAdjust="spacing" textLength="93.3174" x="64.5" y="202.4951">React/Next.js</text></g><!--entity Tailwind CSS--><g id="elem_Tailwind CSS"><rect fill="#F1F1F1" height="36.2969" rx="2.5" ry="2.5" style="stroke:#181818;stroke-width:0.5;" width="110.0088" x="54" y="313.5"/><text fill="#000000" font-family="sans-serif" font-size="14" lengthAdjust="spacing" textLength="90.0088" x="64" y="336.4951">Tailwind CSS</text></g><!--entity Node.js--><g id="elem_Node.js"><rect fill="#F1F1F1" height="36.2969" rx="2.5" ry="2.5" style="stroke:#181818;stroke-width:0.5;" width="72.1719" x="226" y="313.5"/><text fill="#000000" font-family="sans-serif" font-size="14" lengthAdjust="spacing" textLength="52.1719" x="236" y="336.4951">Node.js</text></g><!--entity Express.js--><g id="elem_Express.js"><rect fill="#F1F1F1" height="36.2969" rx="2.5" ry="2.5" style="stroke:#181818;stroke-width:0.5;" width="90.6084" x="224.5" y="428.5"/><text fill="#000000" font-family="sans-serif" font-size="14" lengthAdjust="spacing" textLength="70.6084" x="234.5" y="451.4951">Express.js</text></g><!--entity User Data--><g id="elem_User Data"><rect fill="#F1F1F1" height="36.2969" rx="2.5" ry="2.5" style="stroke:#181818;stroke-width:0.5;" width="89.7881" x="49" y="595.5"/><text fill="#000000" font-family="sans-serif" font-size="14" lengthAdjust="spacing" textLength="69.7881" x="59" y="618.4951">User Data</text></g><!--entity Chat History--><g id="elem_Chat History"><rect fill="#F1F1F1" height="36.2969" rx="2.5" ry="2.5" style="stroke:#181818;stroke-width:0.5;" width="106.9736" x="174.5" y="595.5"/><text fill="#000000" font-family="sans-serif" font-size="14" lengthAdjust="spacing" textLength="86.9736" x="184.5" y="618.4951">Chat History</text></g><!--entity Knowledge Base--><g id="elem_Knowledge Base"><rect fill="#F1F1F1" height="36.2969" rx="2.5" ry="2.5" style="stroke:#181818;stroke-width:0.5;" width="135.5" x="49.5" y="694.5"/><text fill="#000000" font-family="sans-serif" font-size="14" lengthAdjust="spacing" textLength="115.5" x="59.5" y="717.4951">Knowledge Base</text></g><!--entity OpenAI API--><g id="elem_OpenAI API"><rect fill="#F1F1F1" height="36.2969" rx="2.5" ry="2.5" style="stroke:#181818;stroke-width:0.5;" width="97.6973" x="353" y="595.5"/><text fill="#000000" font-family="sans-serif" font-size="14" lengthAdjust="spacing" textLength="77.6973" x="363" y="618.4951">OpenAI API</text></g><!--entity user--><g id="elem_user"><ellipse cx="111.1099" cy="14" fill="#F1F1F1" rx="8" ry="8" style="stroke:#181818;stroke-width:0.5;"/><path d="M111.1099,22 L111.1099,49 M98.1099,30 L124.1099,30 M111.1099,49 L98.1099,64 M111.1099,49 L124.1099,64 " fill="none" style="stroke:#181818;stroke-width:0.5;"/><text fill="#000000" font-family="sans-serif" font-size="14" lengthAdjust="spacing" textLength="73.2197" x="74.5" y="78.4951">Electrician</text></g><!--link user to React/Next.js--><g id="link_user_React/Next.js"><path d="M111,81.68 C111,112.8 111,149.77 111,173.33 " fill="none" id="user-to-React/Next.js" style="stroke:#181818;stroke-width:1.0;"/><polygon fill="#181818" points="111,179.33,115,170.33,111,174.33,107,170.33,111,179.33" style="stroke:#181818;stroke-width:1.0;"/><text fill="#000000" font-family="sans-serif" font-size="13" lengthAdjust="spacing" textLength="57.2749" x="112" y="124.5669">interacts</text></g><!--link React/Next.js to Tailwind CSS--><g id="link_React/Next.js_Tailwind CSS"><path d="M110.74,215.76 C110.36,241.05 109.7301,281.9407 109.3501,307.2407 " fill="none" id="React/Next.js-to-Tailwind CSS" style="stroke:#181818;stroke-width:1.0;"/><polygon fill="#181818" points="109.26,313.24,113.3947,304.3011,109.3351,308.2406,105.3956,304.1809,109.26,313.24" style="stroke:#181818;stroke-width:1.0;"/><text fill="#000000" font-family="sans-serif" font-size="13" lengthAdjust="spacing" textLength="71.1382" x="111" y="258.5669">styled with</text></g><!--link React/Next.js to Node.js--><g id="link_React/Next.js_Node.js"><path d="M145.79,215.53 C160.51,223.57 177.36,233.94 191,245.5 C215.06,265.89 233.9631,290.143 246.9331,308.463 " fill="none" id="React/Next.js-to-Node.js" style="stroke:#181818;stroke-width:1.0;"/><polygon fill="#181818" points="250.4,313.36,248.4643,303.7032,247.5109,309.2792,241.935,308.3258,250.4,313.36" style="stroke:#181818;stroke-width:1.0;"/><text fill="#000000" font-family="sans-serif" font-size="13" lengthAdjust="spacing" textLength="81.1738" x="209" y="258.5669">API requests</text></g><!--link Node.js to Express.js--><g id="link_Node.js_Express.js"><path d="M263.22,349.66 C264.72,370.9 266.8361,400.875 268.3461,422.195 " fill="none" id="Node.js-to-Express.js" style="stroke:#181818;stroke-width:1.0;"/><polygon fill="#181818" points="268.77,428.18,272.1242,418.9199,268.4168,423.1925,264.1442,419.4851,268.77,428.18" style="stroke:#181818;stroke-width:1.0;"/><text fill="#000000" font-family="sans-serif" font-size="13" lengthAdjust="spacing" textLength="49.1372" x="267" y="394.5669">built on</text></g><!--link Express.js to MongoDB--><g id="link_Express.js_MongoDB"><path d="M224.4,448.57 C170.6,452.41 82.25,467.24 33,521.5 C29.5838,525.265 26.7205,529.4813 24.3258,533.9807 C23.7271,535.1056 25.6996,530.8132 25.1582,531.9708 " fill="none" id="Express.js-to-MongoDB" style="stroke:#181818;stroke-width:1.0;"/><polygon fill="#181818" points="22.6163,537.4058,30.0524,530.9479,24.7346,532.8766,22.8058,527.5587,22.6163,537.4058" style="stroke:#181818;stroke-width:1.0;"/><text fill="#000000" font-family="sans-serif" font-size="13" lengthAdjust="spacing" textLength="135.5923" x="59" y="509.5669">stores/retrieves data</text></g><!--link Express.js to OpenAI API--><g id="link_Express.js_OpenAI API"><path d="M263.57,464.77 C259.39,479.27 256.45,499.77 267,513.5 C275.41,524.44 284.81,515.04 297,521.5 C333.45,540.82 363.9782,570.5232 382.9382,591.0432 " fill="none" id="Express.js-to-OpenAI API" style="stroke:#181818;stroke-width:1.0;"/><polygon fill="#181818" points="387.01,595.45,383.8402,586.1252,383.6168,591.7776,377.9644,591.5543,387.01,595.45" style="stroke:#181818;stroke-width:1.0;"/><text fill="#000000" font-family="sans-serif" font-size="13" lengthAdjust="spacing" textLength="90.3843" x="268" y="509.5669">sends queries</text></g><!--link OpenAI API to Express.js--><g id="link_OpenAI API_Express.js"><path d="M400.23,595.19 C396.9,570.64 387.65,525.46 363,496.5 C350.58,481.91 338.1472,473.5556 321.3872,465.8156 " fill="none" id="OpenAI API-to-Express.js" style="stroke:#181818;stroke-width:1.0;"/><polygon fill="#181818" points="315.94,463.3,322.4337,470.7048,320.4793,465.3963,325.7878,463.4419,315.94,463.3" style="stroke:#181818;stroke-width:1.0;"/><text fill="#000000" font-family="sans-serif" font-size="13" lengthAdjust="spacing" textLength="117.2729" x="375" y="509.5669">returns responses</text></g><!--SRC=[RL9DKy8m4BtdLwoz8tSFpb2eogZLeNXoE8HaXKX8QZRbOnp_kzk2jJ3qa6RUllUo-v8hZH_68KoouNIGtpzbeAma4e9MnfKoo3KelowzGnUBkBS80LMKRc5HY7OBoLtmBgBJ2NmBuEzzWbB5VewxUFr9imCsbSPkZTCmB8gP-3anIALQTVMvr_Ylp7PbGA86O9sMKSubiUpPkuKVfQtiZJ30YCj7uN0f8pmOYZxiZz2ZyrkBUe6GiaNZfwolD2I3CHGODaPXw_TIecDuy3fkY3oJ3v1abXiFHXdf4f045PygHBr2htTxFZpSWE5m0cCapciD_oGOfbETj8QjYSlBWhzqcCkjyPryLKYrUrjeQ9tOc3clZ8tWdJZ16-8nniFPdclzW3mWRf2W3lk2f9DChUAx8-0kMCHjT8iNEc7pAZZYF_7J8gHV]--></g></svg>